<?xml version="1.0" standalone="no"?>
<!DOCTYPE svg PUBLIC "-//W3C//DTD SVG 20010904//EN"
 "http://www.w3.org/TR/2001/REC-SVG-20010904/DTD/svg10.dtd">
<svg version="1.0" xmlns="http://www.w3.org/2000/svg"
 width="96.000000pt" height="88.000000pt" viewBox="0 0 96.000000 88.000000"
 preserveAspectRatio="xMidYMid meet">

<g transform="translate(0.000000,88.000000) scale(0.100000,-0.100000)"
fill="#000000" stroke="none">
<path d="M562 740 c-29 -27 -30 -92 -2 -120 47 -47 120 -11 120 60 0 71 -68
106 -118 60z m76 -16 c38 -26 19 -104 -26 -104 -48 0 -70 76 -30 104 12 9 25
16 28 16 3 0 16 -7 28 -16z"/>
<path d="M402 679 c-49 -18 -54 -99 -7 -121 51 -23 96 25 81 85 -7 30 -43 47
-74 36z m48 -34 c7 -9 10 -25 6 -41 -5 -20 -12 -25 -34 -22 -28 3 -40 32 -28
64 7 18 40 18 56 -1z"/>
<path d="M693 630 c-49 -47 -54 -50 -106 -50 -72 0 -98 -27 -105 -104 -6 -75
3 -104 34 -112 23 -6 25 -10 22 -63 -3 -49 -6 -56 -25 -59 -13 -2 -23 -8 -23
-13 0 -12 237 -12 245 0 3 5 -7 11 -22 13 l-28 3 -3 129 -3 130 62 62 c46 46
60 67 57 85 -6 44 -46 36 -105 -21z m87 17 c0 -7 -27 -39 -60 -72 l-59 -59 -3
-135 c-3 -113 -6 -136 -18 -136 -12 0 -16 16 -18 73 -2 39 -7 72 -12 72 -5 0
-10 -33 -12 -72 -2 -57 -6 -73 -18 -73 -12 0 -15 22 -18 128 -3 126 -18 175
-24 75 -2 -30 -8 -53 -15 -56 -10 -3 -13 14 -13 64 0 89 13 104 89 104 54 0
59 2 109 50 53 51 72 60 72 37z"/>
<path d="M207 572 c-37 -40 -10 -112 41 -112 29 0 62 34 62 65 0 54 -69 85
-103 47z m61 -14 c30 -30 -2 -93 -36 -71 -21 13 -27 50 -12 69 15 17 32 18 48
2z"/>
<path d="M340 520 c-19 -19 -28 -60 -12 -60 4 0 15 14 24 30 15 27 22 30 68
30 27 0 50 5 50 10 0 6 -25 10 -55 10 -42 0 -60 -5 -75 -20z"/>
<path d="M183 438 c-52 -25 -59 -178 -8 -178 8 0 15 -9 15 -20 0 -11 5 -20 10
-20 6 0 10 33 10 80 0 47 -4 80 -10 80 -5 0 -10 -22 -10 -50 0 -27 -4 -50 -10
-50 -6 0 -10 26 -10 59 0 70 19 91 82 91 21 0 38 5 38 10 0 13 -79 12 -107 -2z"/>
<path d="M306 418 c-21 -30 -20 -50 4 -81 26 -32 25 -33 -9 -40 -33 -7 -56
-39 -46 -65 5 -13 10 -9 26 17 19 31 21 32 77 29 52 -3 58 -6 72 -33 14 -29
15 -29 18 -7 5 30 -24 62 -55 62 -28 0 -30 11 -3 28 23 14 28 80 8 100 -21 21
-75 15 -92 -10z m79 -18 c11 -36 -4 -62 -33 -58 -28 3 -40 32 -28 64 8 22 54
18 61 -6z"/>
</g>
</svg>
